<?xml version="1.0" encoding="UTF-8" standalone="no"?>
<svg
   xmlns:dc="http://purl.org/dc/elements/1.1/"
   xmlns:cc="http://creativecommons.org/ns#"
   xmlns:rdf="http://www.w3.org/1999/02/22-rdf-syntax-ns#"
   xmlns:svg="http://www.w3.org/2000/svg"
   xmlns="http://www.w3.org/2000/svg"
   xmlns:sodipodi="http://sodipodi.sourceforge.net/DTD/sodipodi-0.dtd"
   xmlns:inkscape="http://www.inkscape.org/namespaces/inkscape"
   version="1.1"
   id="Layer_1"
   xml:space="preserve"
   inkscape:version="0.48.2 r9819"
   width="284.40216"
   height="77.677666"
   sodipodi:docname="0.svg"><metadata
   id="metadata3343"><rdf:RDF><cc:Work
       rdf:about=""><dc:format>image/svg+xml</dc:format><dc:type
         rdf:resource="http://purl.org/dc/dcmitype/StillImage" /></cc:Work></rdf:RDF></metadata><defs
   id="defs3341" /><sodipodi:namedview
   pagecolor="#ffffff"
   bordercolor="#666666"
   borderopacity="1"
   objecttolerance="10"
   gridtolerance="10"
   guidetolerance="10"
   inkscape:pageopacity="0"
   inkscape:pageshadow="2"
   inkscape:window-width="1589"
   inkscape:window-height="1001"
   id="namedview3339"
   showgrid="false"
   fit-margin-top="5"
   fit-margin-left="5"
   fit-margin-right="5"
   fit-margin-bottom="5"
   inkscape:zoom="1.7940591"
   inkscape:cx="17.680825"
   inkscape:cy="154.37903"
   inkscape:window-x="0"
   inkscape:window-y="0"
   inkscape:window-maximized="0"
   inkscape:current-layer="Layer_1" />

<g
   style="fill:#3c3c3c"
   id="g3185"
   transform="translate(-354.36643,-268.44534)">
	<g
   id="g3187">
		<g
   id="g3189">
			<path
   d="m 596.838,288.954 c 1.274,1.004 3.054,0.909 3.956,-0.546 1.297,-2.104 -0.223,-3.981 -1.867,-4.247 -1.711,-0.276 -2.329,0.733 -3.133,0.569 0.677,1.128 1.273,-0.235 2.384,0.336 2.004,-0.497 3.088,1.214 2.637,2.705 0.3,-1.707 -1.294,-2.751 -2.673,-2.1 -1.396,-0.451 -2.449,0.809 -3.372,1.09 0.637,0.425 0.948,1.305 2.068,2.193 z"
   id="path3191"
   inkscape:connector-curvature="0" />
			<path
   d="m 570.333,309.04 c -0.036,0.074 -0.07,0.149 -0.11,0.222 8.249,2.348 17.96,0.566 24.698,-4.204 9.617,-6.811 7.893,-15.687 6.821,-18.013 -0.068,0.798 -0.144,0.991 -0.638,1.77 2.053,0.553 2.309,9.644 -6.112,15.695 -5.956,4.28 -15.97,6.867 -24.659,4.53 z"
   id="path3193"
   inkscape:connector-curvature="0" />
			<path
   d="m 581.146,308.849 c 3.647,-0.339 8.453,-2.286 10.741,-5.629 2.535,-3.695 1.493,-7.709 1.529,-9.783 0.017,-0.932 0.598,-1.763 0.715,-2.625 -0.809,1.221 -2.254,2.231 -3.488,3.197 -2.395,1.873 -3.104,4.048 -3.366,6.275 -0.65,5.495 -3.182,6.898 -6.131,8.565 z"
   id="path3195"
   inkscape:connector-curvature="0" />
			<path
   d="m 591.503,305.238 c 1.631,-1.343 2.817,-3.352 3.284,-5.516 0.445,-2.063 1.437,-3.246 2.322,-4.615 -0.234,1.913 0.637,2.881 -0.368,5.206 -0.91,2.113 -2.428,3.419 -5.238,4.925 z"
   id="path3197"
   inkscape:connector-curvature="0" />
			<path
   d="m 581.146,308.849 c 1.99,2.788 4.044,4.333 6.702,2.934 1.858,-0.979 2.791,-2.605 3.672,-2.742 0.883,-0.138 1.11,0.377 0.733,1.439 1.588,-0.651 1.224,-2.509 -0.299,-2.673 -1.521,-0.165 -5.908,3.279 -10.808,1.042 z"
   id="path3199"
   inkscape:connector-curvature="0" />
		</g>
		<path
   d="m 631.511,324.144 c 2.358,-1.111 2.701,-2.804 1.799,-4.026 -0.818,-1.11 -2.229,-0.9 -2.725,0.258 -0.345,0.808 0.346,1.808 1.138,1.073 -0.451,0.111 -0.813,-0.435 -0.633,-0.823 0.888,-1.907 4.076,0.99 0.983,2.822 -10.354,6.136 -27.313,-5.557 -42.671,-11.293 -5.911,-2.208 -13.106,-3.015 -21.458,-2.17 7.549,-0.475 14.908,0.541 22.418,3.506 15.954,6.297 31.9,15.017 41.149,10.653 z"
   id="path3201"
   inkscape:connector-curvature="0" />
		<path
   d="m 496.28,311.201 c 3.183,6.833 8.137,10.265 14.317,11.344 0.017,-0.092 0.037,-0.182 0.058,-0.271 -6.067,-1.278 -11.051,-4.707 -14.266,-11.1 -0.035,0.014 -0.072,0.021 -0.109,0.027 z"
   id="path3203"
   inkscape:connector-curvature="0" />
		<path
   d="m 527.864,321.438 c 4.253,-1.005 8.671,-2.488 13.123,-4.294 9.97,-4.045 18.989,-6.354 26.957,-7.16 -8.602,0.543 -17.455,3.021 -27.063,6.767 -4.531,1.767 -8.928,3.271 -13.105,4.357 0.029,0.11 0.063,0.219 0.088,0.33 z"
   id="path3205"
   inkscape:connector-curvature="0" />
		<path
   d="m 496.609,311.068 c 4.365,7.279 12.45,10.857 22.761,10.91 16.677,0.084 29.138,-11.129 44.891,-12.152 13.834,-0.896 23.583,5.545 32.636,7.188 11.01,1.997 12.666,0.063 15.586,-1.433 1.825,-0.935 3.956,-1.748 5.419,-0.932 1.79,0.996 0.853,2.341 -0.492,2.158 -1.497,-0.204 -0.971,1.033 -0.267,1.026 2.24,-0.025 3.009,-2.335 1.661,-3.658 -1.91,-1.879 -5.24,-1.683 -8.17,0.048 0.345,-1.151 -0.164,-2.24 -1.5,-2.849 -1.572,-0.717 -3.432,0.789 -2.528,2.269 0.22,0.359 0.479,-0.052 0.413,-0.367 -0.306,-1.469 3.044,-1.742 2.273,1.545 -0.323,1.37 -3.03,3.497 -12.219,1.507 -10.298,-2.23 -17.745,-9.313 -33.585,-7.521 -15.841,1.793 -21.229,11.535 -43.889,11.875 -9.919,0.149 -18.104,-3.712 -22.689,-9.938 -0.071,0.13 -0.176,0.241 -0.301,0.324 z"
   id="path3207"
   inkscape:connector-curvature="0" />
		<path
   d="m 537.068,319.466 c 5.607,-1.974 14.482,-4.032 18.414,-0.927 3.035,2.397 2.861,7.919 -1.813,8.716 -3.056,0.52 -4.761,-2.577 -3.214,-3.727 1.005,-0.747 2.204,0.178 2.001,1.089 -0.158,0.712 -0.886,1.062 -1.504,0.833 0.848,2.114 5.629,0.403 4.234,-3.814 -1.618,-4.902 -9.322,-4.009 -18.118,-2.17 z"
   id="path3209"
   inkscape:connector-curvature="0" />
		<path
   d="m 547.428,316.106 c 3.768,-1.312 12.174,-3.007 17.792,1.586 -4.69,-4.614 -9.572,-4.023 -14.101,-3.226 3.174,-1.243 7.874,-2.467 12.79,-0.946 7.701,2.382 7.443,11.356 14.354,14.579 -3.843,0.478 -6.815,-0.345 -9.546,-3.003 -1.273,-1.238 -2.451,-3.09 -4.07,-3.937 -1.785,-0.932 -1.662,0.503 -0.359,1.155 -0.168,-0.011 -0.774,0.056 -1.298,0.08 -0.521,0.021 -1.644,-0.206 -2.495,-0.818 -0.843,-0.605 -1.261,-1.201 -2.801,-3.348 -1.653,-2.302 -5.843,-2.772 -10.266,-2.122 z"
   id="path3211"
   inkscape:connector-curvature="0" />
		<path
   d="m 552.443,313.995 c 15.409,-4.961 23.569,0.397 27.395,6.595 1.769,2.865 2.272,5.544 4.493,7.505 0.99,0.875 2.771,1.958 6.063,2.266 -11.467,0.438 -14.529,-5.373 -19.062,-12.164 -5.152,-7.72 -13.744,-5.574 -18.889,-4.202 z"
   id="path3213"
   inkscape:connector-curvature="0" />
		<path
   d="m 573.945,314.055 c 3.935,0.719 8.05,2.908 11.144,6.881 0.822,1.054 2.35,2.575 3.869,2.511 1.195,-0.051 2.115,-0.584 2.443,-2.077 3.241,1.008 2.297,5.606 -0.712,6.292 -7.183,1.639 -7.513,-10.729 -16.744,-13.607 z"
   id="path3215"
   inkscape:connector-curvature="0" />
		<path
   d="m 588.052,312.086 c 5.68,2.624 16.807,3.52 18.876,-4.52 0.406,-1.586 0.044,-3.054 -0.839,-3.844 -1.233,-1.103 -2.662,-0.423 -4.25,-1.176 -0.43,-0.204 -0.625,1.467 1.153,2.845 1.162,0.902 1.553,1.932 0.795,3.624 -1.187,2.646 -5.728,6.504 -15.735,3.071 z"
   id="path3217"
   inkscape:connector-curvature="0" />
		<path
   d="m 604.766,311.884 c 1.909,-1.206 2.738,-3.025 3.071,-5.027 0.375,-2.27 0.952,-4.424 2.646,-5.472 1.614,-0.996 4.722,-0.591 5.268,1.941 0.156,0.721 -0.306,2.229 -1.469,2.553 -1.447,0.401 -2.036,-0.813 -1.596,-1.123 0.195,-0.139 0.417,0.376 0.657,-0.043 0.309,-0.537 -0.359,-0.958 -1.14,-0.69 -0.899,0.309 -1.589,1.851 -2.422,3.398 -1.158,2.159 -2.605,3.598 -5.015,4.463 z"
   id="path3219"
   inkscape:connector-curvature="0" />
		<path
   d="m 540.325,330.439 c 4.662,3.047 7.774,3.794 12.419,4.485 5.838,0.869 12.093,3.95 10.898,6.199 -0.059,-2.821 -5.04,-5.348 -10.812,-6.335 -5.055,-0.862 -7.287,-0.611 -12.605,-4.197 -5.729,-3.86 -8.681,-11.021 -17.331,-10.776 8.995,0.254 12.339,7.298 17.431,10.624 z"
   id="path3221"
   inkscape:connector-curvature="0" />
		<path
   d="m 545.588,327.636 c -0.937,1.941 -4.47,3.658 -8.246,-0.274 3.56,4.134 7.525,2.647 8.653,0.317 0.789,-1.622 0.392,-3.102 -0.675,-4.158 -0.922,-0.915 -2.557,-1.219 -3.696,-0.702 -1.316,0.597 -1.809,2.086 -1.353,3.021 0.286,0.591 0.953,0.804 1.53,0.547 0.744,-0.331 0.66,-1.021 0.471,-1.316 -0.171,-0.265 -0.485,-0.389 -0.717,-0.27 -0.203,0.104 -0.273,0.311 -0.226,0.457 0.056,0.172 0.219,0.19 0.299,0.093 0.08,-0.099 0.016,-0.193 -0.047,-0.23 0.654,0.03 0.621,0.936 -0.072,1.077 -1.465,0.301 -1.451,-2.277 0.203,-3.014 1.378,-0.611 2.851,-0.038 3.666,1.061 0.539,0.726 0.939,1.88 0.21,3.391 z"
   id="path3223"
   inkscape:connector-curvature="0" />
		<path
   d="m 549.967,330.658 c -2.813,2.666 -6.887,1.038 -10.532,-1.263 6.282,5.01 11.019,2.87 13.833,2.773 1.421,-0.05 2.566,0.83 4.083,1.103 -0.644,-0.253 -0.991,-0.961 -1.284,-1.427 -0.301,-0.484 -0.541,-0.837 -1.135,-1.195 -0.557,-0.335 -1.193,-0.354 -1.831,-0.139 -0.626,0.209 -1.764,1.108 -2.501,1.065 0.551,-0.379 1.401,-0.495 1.501,-1.542 0.081,-0.843 -0.531,-1.042 -0.673,-1.653 -0.16,0.81 -0.67,1.528 -1.461,2.278 z"
   id="path3225"
   inkscape:connector-curvature="0" />
		<path
   d="m 541.182,330.416 c 1.392,0.708 3.315,1.388 4.965,0.668 1.376,-0.6 1.895,-1.51 2.525,-2.927 -1.002,0.457 -1.571,0.443 -3.1,1.256 -0.957,0.508 -2.504,1.717 -4.834,0.771 1.806,1.049 3.007,0.438 4.926,0.38 -1.129,0.823 -2.902,0.404 -4.482,-0.148 z"
   id="path3227"
   inkscape:connector-curvature="0" />
		<path
   d="m 517.17,321.611 c 3.845,-1.651 8.438,-1.766 13.792,1.694 5.354,3.457 4.85,5.812 9.828,8.583 4.976,2.772 14.288,1.046 15.624,4.444 0.42,1.064 -0.524,1.982 -1.29,1.518 -0.515,-0.312 -0.314,-1.197 0.27,-0.955 -0.052,0.168 0.147,0.451 0.404,0.351 0.257,-0.102 0.334,-0.425 0.09,-0.63 -0.835,-0.701 -1.779,0.475 -1.295,1.263 1.184,1.925 4.185,-0.782 1.531,-2.846 -2.422,-1.881 -9.816,-1.008 -14.965,-3.543 -5.146,-2.534 -7.309,-7.253 -11.401,-9.555 -3.963,-2.229 -7.713,-3.269 -12.588,-0.324 z"
   id="path3229"
   inkscape:connector-curvature="0" />
		<path
   d="m 550.315,322.696 c 0.223,-1.784 -2.282,-2.866 -5.826,-3.23 2.949,0.444 5.126,1.504 5.826,3.23 z"
   id="path3231"
   inkscape:connector-curvature="0" />
		<path
   d="m 518.641,321.229 c 3.931,0.693 6.493,0.517 9.238,0.005 -2.856,0.33 -5.673,0.306 -9.173,-0.271 -0.021,0.087 -0.039,0.178 -0.065,0.266 z"
   id="path3233"
   inkscape:connector-curvature="0" />
		<path
   d="m 533.831,320.169 c 3.592,-0.793 7.532,-1.025 10.658,-0.703 -2.989,-0.451 -6.771,-0.269 -10.617,0.494 -2.356,0.468 -4.214,0.941 -5.993,1.273 1.892,-0.219 3.807,-0.59 5.952,-1.064 z"
   id="path3235"
   inkscape:connector-curvature="0" />
		<path
   d="m 517.89,321.6 c 4.241,-1.462 8.592,1.013 9.888,2.815 1.493,2.079 1.578,3.51 4.166,4.637 -1.237,-0.051 -2.003,-0.266 -3.199,-0.706 -1.053,-0.391 -2.769,-0.751 -4.258,-2.355 -1.979,-2.131 -2.372,-3.591 -5.537,-4.356 2.277,0.104 3.512,0.688 4.555,1.351 1.343,0.855 1.854,2.098 2.962,2.383 -0.847,-0.799 -1.345,-1.87 -2.275,-2.521 -0.928,-0.653 -3.332,-1.903 -6.302,-1.248 z"
   id="path3237"
   inkscape:connector-curvature="0" />
		<path
   d="m 496.199,314.148 c -1.441,3.327 -0.437,4.749 -0.008,6.314 0.837,3.063 -0.72,4.288 -1.911,4.012 -0.862,-0.197 -0.955,-1.008 -0.593,-1.444 0.264,-0.319 0.717,-0.097 0.827,0.128 0.112,0.226 -0.058,0.403 -0.27,0.328 -0.213,-0.076 -0.246,-0.512 -0.436,-0.231 -0.287,0.418 -10e-4,0.776 0.377,0.901 1.638,0.543 1.91,-1.905 0.967,-4.106 -1.165,-2.722 0.008,-4.087 1.047,-5.902 z"
   id="path3239"
   inkscape:connector-curvature="0" />
		<path
   d="m 531.81,324.227 c 4.307,3.152 5.209,5.937 5.727,8.129 0.514,2.177 0.082,4.798 1.741,6.597 -0.766,-0.207 -1.042,-1.017 -1.714,-1.413 -0.807,-0.479 -1.429,-0.521 -1.876,-1.361 -0.71,-1.333 1.324,-3.368 0.401,-4.735 -0.799,3.135 -4.506,3.118 -4.938,0.74 -0.415,-2.271 2.128,-2.938 2.346,-1.136 -0.222,-0.826 -1.515,-0.669 -1.07,0.27 0.433,0.922 1.732,0.978 2.412,0.06 1.059,-1.434 0.576,-3.863 -3.029,-7.151 z"
   id="path3241"
   inkscape:connector-curvature="0" />
		<path
   d="m 496.462,311.147 c 0.623,3.312 1.228,7.569 5.234,10.447 3.037,2.182 5.604,2.825 6.5,6.063 -0.152,-1.382 0.376,-1.263 0.134,-2.354 -0.215,-0.98 -0.586,-1.741 -1.684,-2.584 1.434,0.165 2.65,1.602 4.074,2.194 1.496,0.623 2.572,0.651 3.96,0.203 1.463,-0.468 2.102,-0.978 3.703,-0.959 1.646,0.017 2.886,0.408 4.124,0.481 -1.333,-0.508 -3.438,-2.453 -8.436,-2.741 -2.688,-0.153 -5.523,0.203 -10.034,-1.936 -3.931,-1.862 -6.805,-6.43 -7.548,-8.827 -0.009,0.007 -0.017,0.011 -0.027,0.013 z"
   id="path3243"
   inkscape:connector-curvature="0" />
		<path
   d="m 496.998,316.184 c 0.135,2.185 1.344,3.641 2.193,4.64 1.255,1.471 1.632,2.46 1.605,3.231 -0.034,0.883 -0.755,1.752 -1.387,2.304 0.67,-1.539 0.044,-2.792 -0.921,-4.4 -1.182,-1.975 -1.638,-3.295 -1.49,-5.775 z"
   id="path3245"
   inkscape:connector-curvature="0" />
		<path
   d="m 522.037,319.091 c 5.344,-0.4 11.552,-2.846 13.731,-7.349 1.119,-2.313 1.354,-3.438 3.739,-4.831 0.908,-0.53 2.162,-0.827 2.872,-1.58 0.792,-0.84 0.603,-1.599 1.65,-2.179 -0.571,0.982 -0.26,1.782 -0.563,2.771 -0.339,1.109 -1.038,2.055 -1.686,2.946 -1.295,1.782 -1.654,3.99 -3.659,6.03 -3.75,3.819 -10.518,4.981 -16.084,4.192 z"
   id="path3247"
   inkscape:connector-curvature="0" />
		<path
   d="m 516.725,320.854 c 21.637,4.639 44.61,-14.318 36.259,-33.206 -5.215,-11.791 -17.145,-13.513 -23.919,-11.945 -7.274,1.688 -10.141,5.729 -11.428,8.275 -0.716,1.412 -1.888,0.65 -1.189,-0.777 1.431,-2.958 4.764,-7.288 12.375,-8.833 7.57,-1.535 12.924,0.604 16.838,2.676 -2.593,-1.941 -7.507,-3.449 -11.005,-3.578 -14.089,-0.514 -20.377,8.657 -20.829,16.826 -0.526,9.457 6.173,14.872 12.949,15.475 4.661,0.418 8.496,-1.732 10.121,-5.604 1.487,-3.545 -2.795,-5.531 -4.349,-1.826 -1.389,3.302 -4.304,4.163 -7.107,3.839 -3.872,-0.446 -9.969,-4.469 -9.095,-11.964 0.959,-8.248 8.012,-15.561 19.961,-14.244 7.663,0.846 13.291,5.94 15.994,11.982 7.155,15.986 -9.88,34.874 -32.431,31.514 l -3.136,1.386 -0.009,0.004 z"
   id="path3249"
   inkscape:connector-curvature="0" />
		<path
   d="m 568.987,295.915 c -3.353,-0.146 -8.464,0.772 -13.814,4.687 4.455,-4.397 10.165,-8.093 15.726,-7.368 3.745,0.487 4.872,1.814 7.896,1.362 -4.133,2.364 -6.692,1.455 -9.808,1.319 z"
   id="path3251"
   inkscape:connector-curvature="0" />
		<path
   d="m 569.406,281.645 c 2.065,2.451 2.252,8.288 -5.381,11.023 7.773,-2.319 8.163,-8.604 5.688,-11.553 -1.725,-2.054 -3.975,-2.413 -6.057,-1.607 -1.799,0.695 -3.206,2.73 -3.197,4.588 0.011,2.154 1.734,3.726 3.281,3.675 0.976,-0.031 1.669,-0.808 1.67,-1.747 0.003,-1.21 -0.985,-1.515 -1.5,-1.436 -0.464,0.072 -0.823,0.42 -0.802,0.806 0.017,0.344 0.256,0.563 0.484,0.589 0.267,0.027 0.391,-0.184 0.305,-0.353 -0.082,-0.167 -0.253,-0.14 -0.338,-0.075 0.438,-0.871 1.646,-0.277 1.418,0.749 -0.483,2.175 -3.977,0.586 -3.968,-2.101 0.006,-2.245 1.677,-3.897 3.665,-4.335 1.312,-0.29 3.125,-0.133 4.732,1.777 z"
   id="path3253"
   inkscape:connector-curvature="0" />
		<path
   d="m 556.462,301.743 c 5.193,-3.916 9.733,-4.391 14.133,-3.167 4.398,1.225 7.386,6.608 4.737,8.778 -1.867,1.532 -3.943,-0.447 -3.546,-1.815 0.194,-0.667 0.942,-0.65 1.161,-0.154 0.077,0.171 0.033,0.359 -0.148,0.349 -0.153,-0.009 -0.197,-0.25 -0.021,-0.297 -0.298,-0.393 -0.862,-0.164 -0.821,0.447 0.104,1.513 2.068,2.337 3.181,1.225 1.09,-1.09 0.746,-2.56 0.176,-3.507 -0.457,-0.761 -1.261,-1.521 -1.374,-0.389 -0.054,0.535 -0.312,1.024 -1.038,1.055 -0.959,0.039 -1.704,-1.298 -0.691,-1.874 0.265,-0.15 0.492,0.097 0.374,0.24 -0.119,0.143 -0.236,-0.185 -0.411,-0.011 -0.351,0.344 0.002,0.859 0.525,0.929 0.521,0.067 0.797,-0.683 0.721,-1.179 -0.226,-1.435 -1.394,-1.429 -2.472,-0.849 -1.145,0.619 -2.301,0.276 -3.011,-0.639 -2.694,-3.469 -7.647,-1.629 -11.475,0.858 z"
   id="path3255"
   inkscape:connector-curvature="0" />
		<path
   d="m 549.918,308.17 c 4.923,-7.608 5.132,-13.968 2.989,-19.96 -2.139,-5.991 -9.922,-9.608 -12.676,-5.71 -1.942,2.747 1.019,5.438 2.878,4.749 0.908,-0.336 0.811,-1.375 0.102,-1.631 -0.248,-0.09 -0.505,-0.011 -0.472,0.241 0.029,0.213 0.367,0.251 0.414,0 0.576,0.378 0.314,1.184 -0.538,1.187 -2.114,0.007 -3.455,-2.643 -2.021,-4.297 1.407,-1.625 3.483,-1.294 4.857,-0.596 1.103,0.56 2.24,1.601 0.68,1.87 -0.741,0.128 -1.396,0.535 -1.364,1.549 0.04,1.338 1.974,2.241 2.673,0.773 0.183,-0.381 -0.183,-0.675 -0.37,-0.495 -0.186,0.18 0.279,0.312 0.057,0.569 -0.443,0.524 -1.196,0.084 -1.344,-0.636 -0.146,-0.718 0.869,-1.176 1.565,-1.119 2.017,0.168 2.124,1.794 1.425,3.35 -0.743,1.654 -0.153,3.228 1.188,4.122 5.095,3.395 3.029,10.466 -0.043,16.034 z"
   id="path3257"
   inkscape:connector-curvature="0" />
		<path
   d="m 553.492,304.229 c 2.71,-2.608 4.61,-3.924 6.876,-3.706 1.605,0.154 3.079,1.128 4.02,1.866 -0.828,-0.06 -1.326,0.068 -1.923,0.224 -0.597,0.156 -1.803,0.795 -3.16,0.986 -1.357,0.192 -3.214,-0.673 -5.813,0.63 z"
   id="path3259"
   inkscape:connector-curvature="0" />
		<path
   d="m 548.275,312.281 c 1.709,-4.618 3.94,-7.35 7.314,-8.019 3.158,-0.626 5.403,1.672 6.996,1.206 -0.978,1.358 -3.209,1.415 -6.176,1.463 -2.717,0.045 -5.8,1.052 -8.134,5.35 z"
   id="path3261"
   inkscape:connector-curvature="0" />
	</g>
	<g
   id="g3263">
		<g
   id="g3265">
			<path
   d="m 396.296,288.954 c -1.273,1.004 -3.053,0.909 -3.955,-0.546 -1.297,-2.104 0.223,-3.981 1.866,-4.247 1.71,-0.276 2.329,0.733 3.134,0.569 -0.677,1.128 -1.274,-0.235 -2.385,0.336 -2.003,-0.497 -3.086,1.214 -2.636,2.705 -0.301,-1.707 1.293,-2.751 2.672,-2.1 1.396,-0.451 2.449,0.809 3.372,1.09 -0.636,0.425 -0.948,1.305 -2.068,2.193 z"
   id="path3267"
   inkscape:connector-curvature="0" />
			<path
   d="m 422.801,309.04 c 0.036,0.074 0.072,0.149 0.11,0.222 -8.248,2.348 -17.959,0.566 -24.697,-4.204 -9.618,-6.811 -7.894,-15.687 -6.821,-18.013 0.068,0.798 0.144,0.991 0.638,1.77 -2.053,0.553 -2.309,9.644 6.111,15.695 5.956,4.28 15.97,6.867 24.659,4.53 z"
   id="path3269"
   inkscape:connector-curvature="0" />
			<path
   d="m 411.988,308.849 c -3.647,-0.339 -8.453,-2.286 -10.742,-5.629 -2.533,-3.695 -1.493,-7.709 -1.529,-9.783 -0.016,-0.932 -0.597,-1.763 -0.715,-2.625 0.809,1.221 2.255,2.231 3.489,3.197 2.394,1.873 3.103,4.048 3.365,6.275 0.652,5.495 3.183,6.898 6.132,8.565 z"
   id="path3271"
   inkscape:connector-curvature="0" />
			<path
   d="m 401.632,305.238 c -1.632,-1.343 -2.818,-3.352 -3.285,-5.516 -0.445,-2.063 -1.436,-3.246 -2.321,-4.615 0.233,1.913 -0.637,2.881 0.367,5.206 0.91,2.113 2.428,3.419 5.239,4.925 z"
   id="path3273"
   inkscape:connector-curvature="0" />
			<path
   d="m 411.988,308.849 c -1.991,2.788 -4.045,4.333 -6.702,2.934 -1.858,-0.979 -2.793,-2.605 -3.673,-2.742 -0.883,-0.138 -1.11,0.377 -0.732,1.439 -1.588,-0.651 -1.225,-2.509 0.297,-2.673 1.524,-0.165 5.91,3.279 10.81,1.042 z"
   id="path3275"
   inkscape:connector-curvature="0" />
		</g>
		<path
   d="m 361.624,324.144 c -2.358,-1.111 -2.701,-2.804 -1.799,-4.026 0.817,-1.11 2.229,-0.9 2.724,0.258 0.346,0.808 -0.345,1.808 -1.137,1.073 0.451,0.111 0.814,-0.435 0.633,-0.823 -0.887,-1.907 -4.075,0.99 -0.983,2.822 10.354,6.136 27.313,-5.557 42.67,-11.293 5.911,-2.208 13.107,-3.015 21.459,-2.17 -7.55,-0.475 -14.909,0.541 -22.419,3.506 -15.954,6.297 -31.9,15.017 -41.148,10.653 z"
   id="path3277"
   inkscape:connector-curvature="0" />
		<path
   d="m 482.537,322.545 c 6.164,-1.076 11.11,-4.493 14.292,-11.29 -0.032,-0.018 -0.065,-0.034 -0.097,-0.054 -3.215,6.376 -8.193,9.796 -14.254,11.073 0.021,0.089 0.043,0.179 0.059,0.271 z"
   id="path3279"
   inkscape:connector-curvature="0" />
		<path
   d="m 465.271,321.438 c -4.254,-1.005 -8.671,-2.488 -13.123,-4.294 -9.971,-4.045 -18.989,-6.354 -26.957,-7.16 8.602,0.543 17.455,3.021 27.063,6.767 4.531,1.767 8.928,3.271 13.105,4.357 -0.03,0.11 -0.063,0.219 -0.088,0.33 z"
   id="path3281"
   inkscape:connector-curvature="0" />
		<path
   d="m 375.992,317.835 c 0.704,0.007 1.23,-1.23 -0.267,-1.026 -1.345,0.183 -2.282,-1.162 -0.492,-2.158 1.463,-0.816 3.595,-0.003 5.419,0.932 2.92,1.495 4.575,3.43 15.587,1.433 9.052,-1.644 18.802,-8.085 32.635,-7.188 15.753,1.023 28.213,12.236 44.892,12.152 10.313,-0.053 18.396,-3.634 22.762,-10.914 -0.117,-0.083 -0.229,-0.174 -0.336,-0.273 -4.59,6.199 -12.762,10.042 -22.657,9.893 -22.658,-0.34 -28.047,-10.082 -43.888,-11.875 -15.84,-1.792 -23.288,5.29 -33.586,7.521 -9.188,1.99 -11.896,-0.137 -12.217,-1.507 -0.771,-3.287 2.579,-3.014 2.272,-1.545 -0.065,0.315 0.193,0.727 0.413,0.367 0.903,-1.479 -0.956,-2.985 -2.528,-2.269 -1.336,0.608 -1.845,1.697 -1.5,2.849 -2.93,-1.73 -6.26,-1.927 -8.17,-0.048 -1.348,1.321 -0.579,3.631 1.661,3.656 z"
   id="path3283"
   inkscape:connector-curvature="0" />
		<path
   d="m 456.066,319.466 c -5.607,-1.974 -14.482,-4.032 -18.415,-0.927 -3.034,2.397 -2.861,7.919 1.814,8.716 3.056,0.52 4.761,-2.577 3.213,-3.727 -1.004,-0.747 -2.203,0.178 -2,1.089 0.157,0.712 0.886,1.062 1.504,0.833 -0.848,2.114 -5.63,0.403 -4.235,-3.814 1.619,-4.902 9.324,-4.009 18.119,-2.17 z"
   id="path3285"
   inkscape:connector-curvature="0" />
		<path
   d="m 445.707,316.106 c -3.768,-1.312 -12.175,-3.007 -17.793,1.586 4.691,-4.614 9.572,-4.023 14.102,-3.226 -3.174,-1.243 -7.873,-2.467 -12.79,-0.946 -7.702,2.382 -7.442,11.356 -14.354,14.579 3.842,0.478 6.814,-0.345 9.546,-3.003 1.272,-1.238 2.451,-3.09 4.07,-3.937 1.784,-0.932 1.662,0.503 0.359,1.155 0.168,-0.011 0.774,0.056 1.298,0.08 0.521,0.021 1.643,-0.206 2.495,-0.818 0.843,-0.605 1.26,-1.201 2.801,-3.348 1.653,-2.302 5.843,-2.772 10.266,-2.122 z"
   id="path3287"
   inkscape:connector-curvature="0" />
		<path
   d="m 440.691,313.995 c -15.409,-4.961 -23.568,0.397 -27.395,6.595 -1.77,2.865 -2.272,5.544 -4.494,7.505 -0.989,0.875 -2.771,1.958 -6.062,2.266 11.466,0.438 14.528,-5.373 19.062,-12.164 5.154,-7.72 13.745,-5.574 18.889,-4.202 z"
   id="path3289"
   inkscape:connector-curvature="0" />
		<path
   d="m 419.188,314.055 c -3.934,0.719 -8.048,2.908 -11.143,6.881 -0.822,1.054 -2.349,2.575 -3.868,2.511 -1.195,-0.051 -2.115,-0.584 -2.444,-2.077 -3.241,1.008 -2.296,5.606 0.712,6.292 7.184,1.639 7.514,-10.729 16.743,-13.607 z"
   id="path3291"
   inkscape:connector-curvature="0" />
		<path
   d="m 405.083,312.086 c -5.68,2.624 -16.807,3.52 -18.875,-4.52 -0.407,-1.586 -0.045,-3.054 0.838,-3.844 1.233,-1.103 2.662,-0.423 4.251,-1.176 0.43,-0.204 0.623,1.467 -1.154,2.845 -1.162,0.902 -1.554,1.932 -0.794,3.624 1.185,2.646 5.726,6.504 15.734,3.071 z"
   id="path3293"
   inkscape:connector-curvature="0" />
		<path
   d="m 388.369,311.884 c -1.909,-1.206 -2.738,-3.025 -3.07,-5.027 -0.377,-2.27 -0.953,-4.424 -2.647,-5.472 -1.614,-0.996 -4.72,-0.591 -5.267,1.941 -0.156,0.721 0.305,2.229 1.469,2.553 1.446,0.401 2.034,-0.813 1.594,-1.123 -0.196,-0.139 -0.416,0.376 -0.657,-0.043 -0.307,-0.537 0.36,-0.958 1.141,-0.69 0.899,0.309 1.589,1.851 2.422,3.398 1.158,2.159 2.605,3.598 5.015,4.463 z"
   id="path3295"
   inkscape:connector-curvature="0" />
		<path
   d="m 452.81,330.439 c -4.662,3.047 -7.774,3.794 -12.42,4.485 -5.838,0.869 -12.093,3.95 -10.896,6.199 0.057,-2.821 5.039,-5.348 10.81,-6.335 5.055,-0.862 7.289,-0.611 12.605,-4.197 5.729,-3.86 8.682,-11.021 17.331,-10.776 -8.995,0.254 -12.34,7.298 -17.43,10.624 z"
   id="path3297"
   inkscape:connector-curvature="0" />
		<path
   d="m 447.546,327.636 c 0.938,1.941 4.469,3.658 8.246,-0.274 -3.56,4.134 -7.524,2.647 -8.653,0.317 -0.788,-1.622 -0.392,-3.102 0.676,-4.158 0.921,-0.915 2.556,-1.219 3.695,-0.702 1.317,0.597 1.81,2.086 1.354,3.021 -0.287,0.591 -0.954,0.804 -1.531,0.547 -0.744,-0.331 -0.659,-1.021 -0.47,-1.316 0.172,-0.265 0.484,-0.389 0.717,-0.27 0.203,0.104 0.272,0.311 0.227,0.457 -0.057,0.172 -0.221,0.19 -0.301,0.093 -0.079,-0.099 -0.015,-0.193 0.047,-0.23 -0.652,0.03 -0.62,0.936 0.072,1.077 1.466,0.301 1.451,-2.277 -0.202,-3.014 -1.378,-0.611 -2.85,-0.038 -3.667,1.061 -0.538,0.726 -0.939,1.88 -0.21,3.391 z"
   id="path3299"
   inkscape:connector-curvature="0" />
		<path
   d="m 443.168,330.658 c 2.813,2.666 6.888,1.038 10.531,-1.263 -6.281,5.01 -11.018,2.87 -13.832,2.773 -1.421,-0.05 -2.566,0.83 -4.083,1.103 0.643,-0.253 0.991,-0.961 1.283,-1.427 0.302,-0.484 0.542,-0.837 1.136,-1.195 0.556,-0.335 1.194,-0.354 1.831,-0.139 0.625,0.209 1.764,1.108 2.502,1.065 -0.552,-0.379 -1.403,-0.495 -1.503,-1.542 -0.08,-0.843 0.532,-1.042 0.673,-1.653 0.16,0.81 0.671,1.528 1.462,2.278 z"
   id="path3301"
   inkscape:connector-curvature="0" />
		<path
   d="m 451.952,330.416 c -1.392,0.708 -3.314,1.388 -4.964,0.668 -1.376,-0.6 -1.896,-1.51 -2.525,-2.927 1.001,0.457 1.57,0.443 3.1,1.256 0.957,0.508 2.503,1.717 4.834,0.771 -1.807,1.049 -3.007,0.438 -4.926,0.38 1.13,0.823 2.902,0.404 4.481,-0.148 z"
   id="path3303"
   inkscape:connector-curvature="0" />
		<path
   d="m 475.965,321.611 c -3.845,-1.651 -8.438,-1.766 -13.792,1.694 -5.354,3.457 -4.851,5.812 -9.828,8.583 -4.977,2.772 -14.288,1.046 -15.626,4.444 -0.418,1.064 0.525,1.982 1.292,1.518 0.514,-0.312 0.314,-1.197 -0.27,-0.955 0.051,0.168 -0.147,0.451 -0.405,0.351 -0.257,-0.102 -0.334,-0.425 -0.089,-0.63 0.834,-0.701 1.779,0.475 1.295,1.263 -1.185,1.925 -4.184,-0.782 -1.532,-2.846 2.422,-1.881 9.816,-1.008 14.965,-3.543 5.147,-2.534 7.31,-7.253 11.401,-9.555 3.964,-2.229 7.713,-3.269 12.589,-0.324 z"
   id="path3305"
   inkscape:connector-curvature="0" />
		<path
   d="m 442.819,322.696 c -0.223,-1.784 2.282,-2.866 5.825,-3.23 -2.947,0.444 -5.124,1.504 -5.825,3.23 z"
   id="path3307"
   inkscape:connector-curvature="0" />
		<path
   d="m 474.493,321.229 c -3.931,0.693 -6.493,0.517 -9.237,0.005 2.856,0.33 5.673,0.306 9.172,-0.271 0.021,0.087 0.039,0.178 0.065,0.266 z"
   id="path3309"
   inkscape:connector-curvature="0" />
		<path
   d="m 459.303,320.169 c -3.591,-0.793 -7.531,-1.025 -10.658,-0.703 2.989,-0.451 6.771,-0.269 10.617,0.494 2.357,0.468 4.215,0.941 5.994,1.273 -1.894,-0.219 -3.807,-0.59 -5.953,-1.064 z"
   id="path3311"
   inkscape:connector-curvature="0" />
		<path
   d="m 475.245,321.6 c -4.241,-1.462 -8.592,1.013 -9.888,2.815 -1.494,2.079 -1.578,3.51 -4.165,4.637 1.235,-0.051 2.002,-0.266 3.197,-0.706 1.053,-0.391 2.77,-0.751 4.259,-2.355 1.978,-2.131 2.372,-3.591 5.536,-4.356 -2.277,0.104 -3.512,0.688 -4.555,1.351 -1.343,0.855 -1.853,2.098 -2.962,2.383 0.848,-0.799 1.345,-1.87 2.276,-2.521 0.927,-0.653 3.33,-1.903 6.302,-1.248 z"
   id="path3313"
   inkscape:connector-curvature="0" />
		<path
   d="m 496.935,314.148 c 1.441,3.327 0.438,4.749 0.009,6.314 -0.837,3.063 0.72,4.288 1.911,4.012 0.862,-0.197 0.955,-1.008 0.592,-1.444 -0.264,-0.319 -0.716,-0.097 -0.827,0.128 -0.111,0.226 0.059,0.403 0.271,0.328 0.212,-0.076 0.246,-0.512 0.436,-0.231 0.286,0.418 0,0.776 -0.377,0.901 -1.637,0.543 -1.911,-1.905 -0.967,-4.106 1.163,-2.722 -0.009,-4.087 -1.048,-5.902 z"
   id="path3315"
   inkscape:connector-curvature="0" />
		<path
   d="m 461.325,324.227 c -4.308,3.152 -5.209,5.937 -5.727,8.129 -0.515,2.177 -0.082,4.798 -1.742,6.597 0.766,-0.207 1.042,-1.017 1.714,-1.413 0.807,-0.479 1.43,-0.521 1.877,-1.361 0.709,-1.333 -1.324,-3.368 -0.401,-4.735 0.799,3.135 4.506,3.118 4.939,0.74 0.414,-2.271 -2.13,-2.938 -2.349,-1.136 0.223,-0.826 1.516,-0.669 1.072,0.27 -0.434,0.922 -1.731,0.978 -2.413,0.06 -1.06,-1.434 -0.574,-3.863 3.03,-7.151 z"
   id="path3317"
   inkscape:connector-curvature="0" />
		<path
   d="m 474.75,324.158 c 1.603,-0.019 2.24,0.491 3.703,0.959 1.389,0.448 2.465,0.42 3.961,-0.203 1.424,-0.593 2.641,-2.029 4.075,-2.194 -1.099,0.843 -1.47,1.604 -1.685,2.584 -0.243,1.092 0.285,0.973 0.133,2.354 0.896,-3.238 3.464,-3.882 6.501,-6.063 3.998,-2.873 4.609,-7.12 5.23,-10.429 -0.01,-0.005 -0.018,-0.014 -0.027,-0.019 -0.748,2.398 -3.62,6.955 -7.545,8.815 -4.511,2.139 -7.347,1.782 -10.034,1.936 -4.998,0.288 -7.103,2.233 -8.437,2.741 1.24,-0.073 2.479,-0.464 4.125,-0.481 z"
   id="path3319"
   inkscape:connector-curvature="0" />
		<path
   d="m 496.137,316.184 c -0.136,2.185 -1.345,3.641 -2.194,4.64 -1.254,1.471 -1.631,2.46 -1.604,3.231 0.032,0.883 0.753,1.752 1.385,2.304 -0.669,-1.539 -0.044,-2.792 0.922,-4.4 1.182,-1.975 1.638,-3.295 1.491,-5.775 z"
   id="path3321"
   inkscape:connector-curvature="0" />
		<path
   d="m 471.098,319.091 c -5.345,-0.4 -11.552,-2.846 -13.732,-7.349 -1.119,-2.313 -1.353,-3.438 -3.739,-4.831 -0.908,-0.53 -2.161,-0.827 -2.871,-1.58 -0.793,-0.84 -0.604,-1.599 -1.651,-2.179 0.571,0.982 0.26,1.782 0.563,2.771 0.34,1.109 1.038,2.055 1.686,2.946 1.295,1.782 1.655,3.99 3.661,6.03 3.749,3.819 10.516,4.981 16.083,4.192 z"
   id="path3323"
   inkscape:connector-curvature="0" />
		<path
   d="m 476.41,320.854 c -21.637,4.639 -44.611,-14.318 -36.259,-33.206 5.215,-11.791 17.145,-13.513 23.919,-11.945 7.274,1.688 10.142,5.729 11.428,8.275 0.715,1.412 1.887,0.65 1.189,-0.777 -1.431,-2.958 -4.763,-7.288 -12.375,-8.833 -7.57,-1.535 -12.924,0.604 -16.839,2.676 2.594,-1.941 7.508,-3.449 11.005,-3.578 14.09,-0.514 20.378,8.657 20.829,16.826 0.526,9.457 -6.172,14.872 -12.949,15.475 -4.661,0.418 -8.495,-1.732 -10.12,-5.604 -1.487,-3.545 2.794,-5.531 4.349,-1.826 1.389,3.302 4.304,4.163 7.106,3.839 3.873,-0.446 9.969,-4.469 9.096,-11.964 -0.96,-8.248 -8.013,-15.561 -19.962,-14.244 -7.662,0.846 -13.29,5.94 -15.993,11.982 -7.154,15.986 9.881,34.874 32.43,31.514 l 3.136,1.386 0.01,0.004 z"
   id="path3325"
   inkscape:connector-curvature="0" />
		<path
   d="m 424.146,295.915 c 3.354,-0.146 8.465,0.772 13.814,4.687 -4.455,-4.397 -10.164,-8.093 -15.725,-7.368 -3.745,0.487 -4.873,1.814 -7.896,1.362 4.133,2.364 6.692,1.455 9.807,1.319 z"
   id="path3327"
   inkscape:connector-curvature="0" />
		<path
   d="m 423.729,281.645 c -2.065,2.451 -2.253,8.288 5.381,11.023 -7.772,-2.319 -8.164,-8.604 -5.688,-11.553 1.724,-2.054 3.975,-2.413 6.057,-1.607 1.799,0.695 3.205,2.73 3.197,4.588 -0.011,2.154 -1.734,3.726 -3.281,3.675 -0.976,-0.031 -1.669,-0.808 -1.671,-1.747 -0.002,-1.21 0.985,-1.515 1.5,-1.436 0.465,0.072 0.823,0.42 0.803,0.806 -0.018,0.344 -0.257,0.563 -0.484,0.589 -0.267,0.027 -0.392,-0.184 -0.306,-0.353 0.083,-0.167 0.253,-0.14 0.339,-0.075 -0.438,-0.871 -1.647,-0.277 -1.418,0.749 0.484,2.175 3.977,0.586 3.967,-2.101 -0.005,-2.245 -1.677,-3.897 -3.664,-4.335 -1.314,-0.29 -3.125,-0.133 -4.732,1.777 z"
   id="path3329"
   inkscape:connector-curvature="0" />
		<path
   d="m 436.673,301.743 c -5.194,-3.916 -9.734,-4.391 -14.133,-3.167 -4.398,1.225 -7.386,6.608 -4.737,8.778 1.866,1.532 3.943,-0.447 3.545,-1.815 -0.192,-0.667 -0.942,-0.65 -1.161,-0.154 -0.077,0.171 -0.033,0.359 0.148,0.349 0.154,-0.009 0.198,-0.25 0.021,-0.297 0.299,-0.393 0.864,-0.164 0.821,0.447 -0.104,1.513 -2.068,2.337 -3.179,1.225 -1.091,-1.09 -0.747,-2.56 -0.177,-3.507 0.456,-0.761 1.261,-1.521 1.374,-0.389 0.053,0.535 0.312,1.024 1.038,1.055 0.959,0.039 1.704,-1.298 0.691,-1.874 -0.265,-0.15 -0.493,0.097 -0.374,0.24 0.118,0.143 0.235,-0.185 0.41,-0.011 0.352,0.344 -10e-4,0.859 -0.524,0.929 -0.521,0.067 -0.797,-0.683 -0.722,-1.179 0.226,-1.435 1.395,-1.429 2.472,-0.849 1.146,0.619 2.301,0.276 3.012,-0.639 2.693,-3.469 7.646,-1.629 11.475,0.858 z"
   id="path3331"
   inkscape:connector-curvature="0" />
		<path
   d="m 443.216,308.17 c -4.922,-7.608 -5.132,-13.968 -2.988,-19.96 2.139,-5.991 9.922,-9.608 12.676,-5.71 1.942,2.747 -1.02,5.438 -2.879,4.749 -0.907,-0.336 -0.811,-1.375 -0.101,-1.631 0.248,-0.09 0.504,-0.011 0.472,0.241 -0.029,0.213 -0.367,0.251 -0.414,0 -0.576,0.378 -0.314,1.184 0.537,1.187 2.114,0.007 3.456,-2.643 2.021,-4.297 -1.406,-1.625 -3.482,-1.294 -4.856,-0.596 -1.103,0.56 -2.24,1.601 -0.68,1.87 0.741,0.128 1.395,0.535 1.364,1.549 -0.04,1.338 -1.974,2.241 -2.674,0.773 -0.183,-0.381 0.184,-0.675 0.37,-0.495 0.186,0.18 -0.278,0.312 -0.056,0.569 0.442,0.524 1.196,0.084 1.344,-0.636 0.146,-0.718 -0.869,-1.176 -1.565,-1.119 -2.017,0.168 -2.124,1.794 -1.425,3.35 0.743,1.654 0.153,3.228 -1.189,4.122 -5.096,3.395 -3.029,10.466 0.043,16.034 z"
   id="path3333"
   inkscape:connector-curvature="0" />
		<path
   d="m 439.643,304.229 c -2.711,-2.608 -4.611,-3.924 -6.876,-3.706 -1.605,0.154 -3.08,1.128 -4.021,1.866 0.828,-0.06 1.327,0.068 1.923,0.224 0.599,0.155 1.803,0.795 3.16,0.986 1.358,0.192 3.215,-0.673 5.814,0.63 z"
   id="path3335"
   inkscape:connector-curvature="0" />
		<path
   d="m 444.859,312.281 c -1.71,-4.618 -3.941,-7.35 -7.314,-8.019 -3.159,-0.626 -5.402,1.672 -6.997,1.206 0.978,1.358 3.209,1.415 6.176,1.463 2.717,0.045 5.8,1.052 8.135,5.35 z"
   id="path3337"
   inkscape:connector-curvature="0" />
	</g>
</g>
</svg>