<?xml version="1.0" encoding="UTF-8" standalone="no"?>
<!-- Generator: Adobe Illustrator 13.0.0, SVG Export Plug-In . SVG Version: 6.00 Build 14948)  -->

<svg
   xmlns:dc="http://purl.org/dc/elements/1.1/"
   xmlns:cc="http://creativecommons.org/ns#"
   xmlns:rdf="http://www.w3.org/1999/02/22-rdf-syntax-ns#"
   xmlns:svg="http://www.w3.org/2000/svg"
   xmlns="http://www.w3.org/2000/svg"
   xmlns:sodipodi="http://sodipodi.sourceforge.net/DTD/sodipodi-0.dtd"
   xmlns:inkscape="http://www.inkscape.org/namespaces/inkscape"
   version="1.1"
   id="Layer_1"
   x="0px"
   y="0px"
   width="111.17287"
   height="269.58682"
   viewBox="0 0 111.17287 269.58682"
   enable-background="new 0 0 655.342 424.415"
   xml:space="preserve"
   inkscape:version="0.48.2 r9819"
   sodipodi:docname="8.svg"><metadata
   id="metadata4251"><rdf:RDF><cc:Work
       rdf:about=""><dc:format>image/svg+xml</dc:format><dc:type
         rdf:resource="http://purl.org/dc/dcmitype/StillImage" /></cc:Work></rdf:RDF></metadata><defs
   id="defs4249" /><sodipodi:namedview
   pagecolor="#ffffff"
   bordercolor="#666666"
   borderopacity="1"
   objecttolerance="10"
   gridtolerance="10"
   guidetolerance="10"
   inkscape:pageopacity="0"
   inkscape:pageshadow="2"
   inkscape:window-width="640"
   inkscape:window-height="480"
   id="namedview4247"
   showgrid="false"
   fit-margin-top="5"
   fit-margin-left="5"
   fit-margin-right="5"
   fit-margin-bottom="5"
   inkscape:zoom="0.53712414"
   inkscape:cx="200.04399"
   inkscape:cy="52.379499"
   inkscape:window-x="0"
   inkscape:window-y="0"
   inkscape:window-maximized="0"
   inkscape:current-layer="Layer_1" />



<g
   id="g4211"
   transform="translate(-127.627,4.9998228)"    style="fill:#3c3c3c">
	<path
   d="m 177.507,121.793 c 3.975,-26.14 1.064,-41.06 -5.102,-62.487 -7.749,-26.925 -6.768,-60.023 5.306,-59.294 -12.076,5.808 -13.173,32.315 -6.059,59.19 6.232,23.534 11.711,32.688 6.708,62.722 -5.39,32.359 -30.503,59.21 -12.401,96.105 -16.625,-39.354 7.208,-67.686 11.548,-96.236 z"
   id="path4213"
   inkscape:connector-curvature="0" />
	<path
   d="m 155.021,104.585 c 10.23,0.224 24.612,12.096 15.058,36.157 10.847,-23.518 -3.385,-37.719 -15.673,-38.007 -8.561,-0.203 -14.171,4.427 -16.639,11.116 -2.13,5.783 -0.224,13.446 4.252,17.345 5.179,4.52 12.581,3.708 15.723,-0.104 1.983,-2.404 1.591,-5.701 -0.659,-7.692 -2.893,-2.56 -5.708,-0.834 -6.605,0.565 -0.808,1.261 -0.729,2.856 0.24,3.627 0.855,0.679 1.887,0.568 2.427,0.077 0.631,-0.58 0.386,-1.324 -0.19,-1.476 -0.582,-0.154 -0.873,0.313 -0.897,0.654 -1.164,-2.886 2.807,-4.527 4.786,-1.816 4.186,5.746 -6.986,10.763 -13.409,5.07 -5.362,-4.75 -5.794,-12.242 -2.65,-17.93 2.075,-3.755 6.271,-7.763 14.236,-7.586 z"
   id="path4215"
   inkscape:connector-curvature="0" />
	<path
   d="m 159.441,79.711 c 17.063,6.904 18.069,27.707 15.306,47.99 9.267,-37.016 -9.314,-53.254 -15.278,-65.227 -3.012,-6.034 -1.471,-12.723 -3.284,-19.804 0.18,3.268 -2.197,6.173 -3.633,8.352 -1.495,2.257 -2.544,3.991 -2.922,7.259 -0.354,3.064 0.821,5.856 3.004,8.185 2.141,2.284 8.261,5.438 9.532,8.706 -2.723,-1.635 -4.902,-5.084 -9.621,-3.453 -3.8,1.314 -3.454,4.356 -5.815,6.169 3.816,-0.902 7.921,-0.115 12.711,1.823 z"
   id="path4217"
   inkscape:connector-curvature="0" />
	<path
   d="m 175.71,118.139 c 0.315,-7.403 -0.537,-17.053 -6.891,-22.761 -5.302,-4.763 -10.258,-5.211 -17.626,-5.137 3.945,3.419 5.015,5.905 11.535,10.909 4.079,3.132 12.352,7.431 12.858,19.364 0.978,-9.869 -4.033,-13.849 -8.063,-22.027 5.777,3.26 7.461,11.74 8.187,19.652 z"
   id="path4219"
   inkscape:connector-curvature="0" />
	<path
   d="m 184.993,239.216 c -14.701,-13.35 -24.255,-32.975 -19.863,-62.914 4.393,-29.945 15.554,-32.406 17.721,-59.368 2.167,-26.956 -23.642,-63.787 -11.597,-76.254 3.774,-3.909 9.597,-1.644 9.099,2.581 -0.334,2.832 -4.553,3.712 -4.66,0.723 0.833,-0.11 1.663,-1.533 0.722,-2.441 -0.941,-0.907 -2.496,-0.612 -2.902,0.853 -1.378,4.983 5.559,6.753 8.007,3.108 5.984,-8.905 -11.624,-16.537 -15.305,-1.014 -3.359,14.173 14.992,44.395 14.183,71.628 -0.805,27.237 -16.929,45.868 -18.811,68.077 -1.819,21.517 1.079,39.763 23.406,55.021 z"
   id="path4221"
   inkscape:connector-curvature="0" />
	<path
   d="m 180.156,132.388 c 1.137,-12.34 4.954,-30.951 14.258,-35.699 7.182,-3.668 17.495,1.462 14.938,11.016 -1.673,6.246 -9.022,6.78 -9.859,2.849 -0.539,-2.553 2.255,-4.021 3.809,-2.845 1.208,0.917 1.239,2.605 0.271,3.576 4.743,0.23 5.659,-10.316 -3.552,-11.346 -10.691,-1.195 -15.701,14.18 -19.865,32.449 z"
   id="path4223"
   inkscape:connector-curvature="0" />
	<path
   d="m 207.644,259.579 c 0.034,0.004 0.065,0.006 0.099,0.008 -7.75,-4.994 -14.602,-10.221 -21.474,-18.48 -24.791,-29.805 -15.26,-57.752 4.571,-67.314 19.333,-9.32 32.715,0.516 37.326,9.393 4.61,8.879 2.881,21.211 -7.62,25.998 -7.242,3.305 -12.034,-0.178 -13.913,-3.797 -2.818,-5.424 3.491,-9.982 6.26,-7.842 1.328,1.031 1.87,3.16 0.833,4.633 4.402,-0.002 4.162,-7.957 -1.9,-8.9 -6.068,-0.939 -10.765,6.586 -7.551,12.875 2.471,4.84 9.346,9.154 17.394,5.203 13.907,-6.824 13.931,-21.9 9.566,-30.305 -7.666,-14.764 -24.328,-20.504 -42.037,-12.195 -23.876,11.201 -32.806,45.771 -5.42,74.451 6.737,7.057 13.022,11.705 19.648,15.807 1.405,0.178 2.808,0.348 4.218,0.465 z"
   id="path4225"
   inkscape:connector-curvature="0" />
	<path
   d="m 197.441,256.204 c -10.149,-3.998 -23.539,-17.148 -37.086,-16.998 -10.138,0.109 -18.718,4.906 -27.728,8.73 4.239,0.133 6.367,0.467 10.235,2.242 3.99,1.834 9.521,4.457 13.744,4.557 12.266,0.291 15.633,-6.391 28.654,0.277 -8.619,-7.291 -18.809,-11.588 -25.388,-12.602 13.795,-1.393 24.184,10.814 37.569,13.794 z"
   id="path4227"
   inkscape:connector-curvature="0" />
	<path
   d="m 204.337,256.3 c -23.143,-17.572 -36.654,-42.141 -28.627,-62.494 6.497,-16.475 28.638,-24.814 41.598,-14.557 2.172,1.721 6.586,6.643 3.876,10.305 -1.52,2.053 -4.184,1.482 -5.015,-0.076 -1.674,-3.15 2.602,-4.641 3.075,-2.441 0.086,0.412 -0.444,1.027 -0.995,0.518 -0.552,-0.514 0.374,-1.223 -0.226,-1.098 -3.462,0.738 -0.729,5.391 2.055,3.252 2.894,-2.232 0.302,-6.912 -2.814,-9.533 -12.104,-10.197 -34.185,-2.975 -41.16,14.539 -7.375,18.509 4.787,42.819 28.233,61.585 z"
   id="path4229"
   inkscape:connector-curvature="0" />
	<path
   d="m 204.28,256.817 c -14.48,-8.77 -23.155,-18.822 -20.614,-25.926 1.365,-3.813 5.426,-5.391 8.769,-4.045 2.513,1.012 4.164,3.793 3.134,6.539 -1.281,3.422 -6.046,4.518 -7.399,0.787 -1.399,-3.859 5.295,-5.127 4.708,-1.99 -0.093,0.492 -1.318,-0.766 -1.626,0.328 1.815,1.945 3.521,-1.168 1.043,-2.475 -1.9,-1 -5.808,1.121 -4.524,4.566 1.314,3.535 6.038,3.6 8.034,0.113 1.564,-2.727 1.018,-6.424 -2.842,-8.398 -3.17,-1.619 -7.978,-0.324 -9.801,4.262 -2.424,6.087 3.281,16.267 21.118,26.239 z"
   id="path4231"
   inkscape:connector-curvature="0" />
	<path
   d="m 174.123,206.411 c -1.852,-3.748 -1.47,-6.412 -2.521,-9.209 8.752,5.734 7.136,12.777 13.529,19.1 -3.923,-2.899 -8.888,-5.598 -11.008,-9.891 z"
   id="path4233"
   inkscape:connector-curvature="0" />
	<path
   d="m 156.358,193.052 c 8.638,7.109 4.733,25.994 30.72,50.582 -27.018,-27.186 -20.847,-43.264 -30.215,-51.514 -11.052,-9.727 -25.729,2.918 -16.809,12.377 4.23,4.484 10.561,0.9 7.364,-3.213 -1.291,-1.662 -3.254,-1.23 -3.751,0.143 -0.497,1.367 0.266,3.242 2.563,2.791 1.341,-0.266 -1.611,-2.057 0.007,-1.83 4.383,1.623 -1.746,6.359 -5.819,1.311 -6.84,-8.477 6.025,-18.802 15.94,-10.647 z"
   id="path4235"
   inkscape:connector-curvature="0" />
	<path
   d="m 165.063,179.944 c 0.675,-6.281 4.513,-19.107 14.336,-24.402 -9.788,3.588 -12.252,10.975 -14.182,18.002 0.373,-5.387 1.808,-12.943 7.319,-18.951 8.633,-9.411 21.309,-2.955 30.608,-10.662 -1.921,5.822 -5.114,9.519 -10.771,11.628 -2.638,0.984 -6.089,1.412 -8.398,3.158 -2.544,1.924 -0.406,2.721 1.409,1.295 -0.129,0.234 -0.441,1.154 -0.766,1.914 -0.324,0.76 -1.407,2.215 -2.863,3.021 -1.436,0.791 -2.573,0.988 -6.694,1.738 -4.415,0.806 -7.93,6.486 -9.998,13.259 z"
   id="path4237"
   inkscape:connector-curvature="0" />
	<path
   d="m 165.442,171.329 c 3.348,-25.423 16.553,-33.474 28.021,-34.75 5.304,-0.588 9.48,0.508 13.795,-1.342 1.922,-0.824 4.68,-2.64 7.355,-7.141 -7.154,16.713 -17.549,17.157 -30.345,19.038 -14.547,2.138 -17.3,15.9 -18.826,24.195 z"
   id="path4239"
   inkscape:connector-curvature="0" />
	<path
   d="m 180.111,140.585 c 3.697,-5.146 9.624,-9.552 17.412,-11.29 2.063,-0.461 5.279,-1.617 6.218,-3.836 0.737,-1.744 0.597,-3.425 -1.318,-4.906 3.641,-3.959 9.584,0.515 8.529,5.289 -2.527,11.398 -20.459,3.48 -30.841,14.743 z"
   id="path4241"
   inkscape:connector-curvature="0" />
	<path
   d="m 181.357,103.865 c -2.263,-8.248 -2.264,-15.454 -1.164,-20.09 2.153,-9.097 7.637,-13.096 12.111,-11.72 2.851,0.874 4.273,3.637 3.549,5.883 -0.761,2.349 -3.279,3.65 -5.105,2.622 -2.64,-1.495 0.156,-4.182 1.487,-2.511 -0.257,0.075 -0.544,0.286 -0.591,0.576 -0.049,0.311 0.256,0.674 0.646,0.616 0.496,-0.083 0.791,-0.552 0.69,-0.98 -0.23,-0.959 -1.449,-1.7 -2.77,-1.003 -1.498,0.79 -1.665,3.251 0.875,3.982 1.986,0.574 4.551,-0.597 5.308,-3.18 0.781,-2.642 -0.941,-5.692 -4.023,-6.506 -5.393,-1.418 -11,3.869 -12.663,12.76 -1.098,5.867 -0.588,12.756 1.333,19.651 0.108,-0.037 0.213,-0.064 0.317,-0.1 z"
   id="path4243"
   inkscape:connector-curvature="0" />
	<path
   d="m 188.547,55.808 c -7.244,9.043 -11.132,18.453 -10.54,32.583 -0.949,-14.004 3.201,-23.985 10.199,-32.83 7.299,-9.222 17.037,-12.584 19.707,-8.512 0.898,1.371 -0.09,2.832 -1.354,3.063 -1.066,0.192 -1.805,-0.729 -1.666,-1.33 0.319,-1.396 1.865,-0.734 1.55,-0.236 -0.286,0.452 -0.509,-0.417 -0.835,0.068 -0.154,0.224 -0.1,0.859 0.75,0.902 1.152,0.054 1.757,-1.041 1.232,-2.061 -1.919,-3.759 -11.652,-0.876 -19.043,8.353 z"
   id="path4245"
   inkscape:connector-curvature="0" />
</g>
</svg>