<?xml version="1.0" encoding="UTF-8" standalone="no"?>
<!-- Generator: Adobe Illustrator 13.0.0, SVG Export Plug-In . SVG Version: 6.00 Build 14948)  -->

<svg
   xmlns:dc="http://purl.org/dc/elements/1.1/"
   xmlns:cc="http://creativecommons.org/ns#"
   xmlns:rdf="http://www.w3.org/1999/02/22-rdf-syntax-ns#"
   xmlns:svg="http://www.w3.org/2000/svg"
   xmlns="http://www.w3.org/2000/svg"
   xmlns:sodipodi="http://sodipodi.sourceforge.net/DTD/sodipodi-0.dtd"
   xmlns:inkscape="http://www.inkscape.org/namespaces/inkscape"
   version="1.1"
   id="Layer_1"
   x="0px"
   y="0px"
   width="163.21973"
   height="259.53101"
   viewBox="0 0 163.21973 259.531"
   enable-background="new 0 0 655.342 424.415"
   xml:space="preserve"
   inkscape:version="0.48.2 r9819"
   sodipodi:docname="8.svg"><metadata
   id="metadata43"><rdf:RDF><cc:Work
       rdf:about=""><dc:format>image/svg+xml</dc:format><dc:type
         rdf:resource="http://purl.org/dc/dcmitype/StillImage" /></cc:Work></rdf:RDF></metadata><defs
   id="defs41" /><sodipodi:namedview
   pagecolor="#ffffff"
   bordercolor="#666666"
   borderopacity="1"
   objecttolerance="10"
   gridtolerance="10"
   guidetolerance="10"
   inkscape:pageopacity="0"
   inkscape:pageshadow="2"
   inkscape:window-width="640"
   inkscape:window-height="480"
   id="namedview39"
   showgrid="false"
   fit-margin-top="5"
   fit-margin-left="5"
   fit-margin-right="5"
   fit-margin-bottom="5"
   inkscape:zoom="0.53712414"
   inkscape:cx="-36.966035"
   inkscape:cy="60.417498"
   inkscape:window-x="0"
   inkscape:window-y="0"
   inkscape:window-maximized="0"
   inkscape:current-layer="Layer_1" />





<g
   style="fill:#3c3c3c"
   id="g3"
   transform="translate(-364.63704,-13.094011)">
	<path
   d="m 495.16,91.79 c 15.096,-32.628 -1.139,-49.944 -6.146,-54.947 -5.006,-5.002 -10.875,-9.448 -17.227,-7.77 -5.23,1.382 -7.449,7.37 -2.984,10.37 1.895,1.271 4.422,1.085 6.123,-0.875 1.873,-2.153 0.203,-4.439 -1.266,-3.423 -1.131,0.779 -0.539,1.875 0.424,2.113 -0.928,1.78 -3.697,0.701 -4.473,-0.985 -0.779,-1.688 0.982,-4.511 4.279,-4.898 3.344,-0.393 6.715,0.892 11.361,4.62 4.12,3.304 24.899,20.701 9.909,55.795 z"
   id="path5"
   inkscape:connector-curvature="0" />
	<path
   d="m 416.934,68.084 c 1.016,17.148 16.264,19.451 23.936,13.51 5.504,-4.261 6.822,-11.341 3.168,-16.68 -5.711,-8.327 -15.85,-3.248 -11.338,-0.217 1.713,1.149 3.148,-1.719 1.021,-2.828 3.303,-1.941 7.449,1.396 8.869,4.333 1.947,4.03 -0.686,7.899 -6.609,7.876 -1.17,9.649 -17.569,8.428 -19.047,-5.994 z"
   id="path7"
   inkscape:connector-curvature="0" />
	<path
   d="m 408.352,188.849 c 9.807,-1.746 25.809,6.816 21.313,31.617 5.836,-24.527 -10.475,-35.346 -22.258,-33.262 -8.205,1.447 -12.67,6.947 -13.742,13.799 -0.922,5.926 2.367,12.877 7.385,15.74 5.816,3.316 12.721,1.123 14.986,-3.121 1.43,-2.676 0.42,-5.744 -2.105,-7.213 -3.25,-1.891 -5.609,0.299 -6.193,1.809 -0.529,1.355 -0.148,2.863 0.92,3.41 0.951,0.484 1.914,0.182 2.334,-0.391 0.496,-0.674 0.117,-1.334 -0.469,-1.371 -0.58,-0.033 -0.77,0.469 -0.73,0.797 -1.662,-2.529 1.814,-4.859 4.221,-2.648 5.102,4.672 -4.6,11.605 -11.818,7.41 -6.033,-3.502 -7.885,-10.568 -5.973,-16.6 1.256,-3.984 4.49,-8.615 12.129,-9.976 z"
   id="path9"
   inkscape:connector-curvature="0" />
	<path
   d="m 488.313,213.083 c -2.391,-4.275 -6.348,-7.268 -11.143,-8.42 -5.123,-1.227 -9.238,0.34 -11.387,2.215 -4.273,3.721 -4.305,8.756 -2.441,12.096 0.996,1.793 2.805,3.193 4.826,3.791 0.264,0.078 0.531,0.143 0.799,0.189 1.752,0.328 3.574,-0.223 4.465,-1.129 -0.742,0.287 -2.688,0.654 -4.213,0.215 -1.959,-0.57 -3.771,-2.014 -4.623,-3.682 -1.648,-3.219 -0.787,-7.41 2.041,-9.975 3.195,-2.887 8.27,-2.42 11.951,-1.012 7.561,2.875 11.518,12.014 9.006,20.801 -2.07,7.242 -10.182,17.475 -24.055,16.006 -9.902,-1.049 -18.135,-5.621 -23.807,-13.219 -6.799,-9.109 -10.438,-22.672 -9.49,-34.986 -2.189,10.811 1.309,26.363 7.977,35.582 4.557,6.303 11.004,10.807 18.51,13.021 1.779,0.525 3.613,0.924 5.496,1.182 12.68,1.76 23.732,-4.891 27.514,-16.533 l 0,0 c 1.779,-5.466 1.255,-11.349 -1.426,-16.142 z m -58.399,-13.67 c -0.266,11.082 3.375,23.439 9.568,31.738 4.379,5.867 10.273,9.947 17.275,12.01 2.15,0.637 4.406,1.08 6.748,1.326 14.066,1.49 22.291,-8.891 24.389,-16.225 2.561,-8.945 -1.482,-18.248 -9.195,-21.188 -3.77,-1.438 -8.975,-1.91 -12.275,1.072 -2.928,2.654 -3.816,7.012 -2.105,10.352 0.895,1.764 2.723,3.221 4.785,3.83 0.006,0.002 0.02,0.008 0.027,0.01 1.01,0.293 1.957,0.268 2.848,0.094 -0.881,0.314 -1.879,0.416 -2.957,0.213 -0.258,-0.045 -0.516,-0.107 -0.764,-0.182 -1.949,-0.572 -3.686,-1.922 -4.646,-3.646 -1.799,-3.225 -1.76,-8.096 2.379,-11.705 2.084,-1.824 6.1,-3.342 11.109,-2.143 4.705,1.133 8.586,4.066 10.939,8.268 2.641,4.713 3.15,10.504 1.398,15.893 l 0,0 c -3.732,11.496 -14.648,18.053 -27.17,16.316 -1.867,-0.256 -3.688,-0.648 -5.449,-1.17 -7.439,-2.195 -13.828,-6.656 -18.344,-12.904 -5.925,-8.193 -9.474,-21.978 -8.56,-31.959 z"
   id="path11"
   inkscape:connector-curvature="0" />
	<path
   d="m 438.639,167.728 c 0.201,-1.537 0.48,-3.09 0.893,-4.678 4.828,-18.609 20.104,-26.518 33.957,-24.054 17.389,3.09 21.582,16.095 20.387,24.234 -1.197,8.146 -8.285,15.547 -17.605,13.684 -6.418,-1.283 -7.943,-5.912 -7.453,-9.232 0.732,-4.971 7.135,-4.98 7.951,-2.221 0.395,1.328 -0.271,3.014 -1.674,3.494 2.941,2.115 6.609,-3.305 3.02,-6.854 -3.598,-3.549 -10.355,-0.791 -11.236,4.959 -0.686,4.414 1.828,10.602 9.104,11.842 12.563,2.143 19.84,-7.908 20.971,-15.617 1.994,-13.541 -6.365,-25.394 -22.182,-28.377 -16.529,-3.115 -34.063,7.415 -38.705,27.426 -1.174,5.064 -5.336,25.217 -4.826,29.682 0.755,-3.095 5.863,-21.531 7.398,-24.288 z"
   id="path13"
   inkscape:connector-curvature="0" />
	<path
   d="m 426.537,127.369 c 17.414,24.866 -3.963,54.974 8.582,94.487 -11.43,-41.813 12.695,-68.752 -5.582,-96.369 -11.346,-17.134 -31.451,-20.871 -45.85,-12.176 -13.779,8.321 -17.469,22.344 -10.867,34.338 3.752,6.826 14.08,13.701 25.105,7.308 6.381,-3.705 6.574,-10.38 4.391,-14.281 -2.834,-5.076 -10.129,-5.3 -12.26,-0.719 -2.127,4.578 3.209,8.376 5.223,5.365 -1.484,0.041 -2.695,-1.306 -2.789,-2.687 -0.201,-2.872 5.803,-5.103 8.225,-0.7 1.619,2.94 1.811,7.81 -3.756,11.257 -8.082,5 -17.309,0.545 -21.279,-6.669 -3.963,-7.209 -4.576,-20.862 10.639,-29.833 12.119,-7.146 29.193,-5.072 40.218,10.679 z"
   id="path15"
   inkscape:connector-curvature="0" />
	<path
   d="m 430.414,156.026 c 0.723,-20.392 -9.844,-37.42 -25.912,-41.081 -14.205,-3.232 -30.066,8.258 -28.969,21.816 0.182,2.272 1.533,7.536 5.277,7.36 2.102,-0.098 2.93,-2.186 2.24,-3.465 -1.391,-2.586 -4.365,-0.344 -3.076,0.985 0.24,0.247 0.906,0.165 0.809,-0.446 -0.098,-0.607 -1.008,-0.301 -0.65,-0.653 2.086,-2.031 4.027,1.968 1.291,2.894 -2.855,0.961 -4.867,-2.953 -5.238,-6.283 -1.449,-12.94 13.705,-25.269 28.758,-21.522 15.794,3.936 25.685,20.445 25.47,40.395 z"
   id="path17"
   inkscape:connector-curvature="0" />
	<path
   d="m 448.525,142.541 c 0.221,0.209 0.443,0.425 0.65,0.648 19.287,-16.537 10.432,-43.579 -5.83,-44.616 -4.66,-0.293 -8.053,2.372 -8.826,5.126 -0.422,1.484 -0.266,3.054 0.486,4.318 0.666,1.134 1.748,1.906 3.037,2.182 1.377,0.297 2.467,-0.147 3.025,-0.663 1.117,-1.019 1.092,-2.357 0.576,-3.227 -0.561,-0.95 -1.951,-1.396 -2.705,-0.727 0.785,-0.496 2.006,0.042 2.443,0.854 0.479,0.879 0.268,2.04 -0.496,2.762 -0.857,0.814 -2.25,0.72 -3.266,0.363 -2.086,-0.737 -3.227,-3.201 -2.598,-5.612 0.516,-1.988 3.873,-5.149 8.584,-4.637 15.434,1.668 23.348,27.355 4.92,43.229 z"
   id="path19"
   inkscape:connector-curvature="0" />
	<path
   d="m 453.492,136.307 c 6.984,-10.98 4.768,-21.543 0.287,-24.598 -2.398,-1.641 -5.428,-0.848 -6.803,1.351 -1.037,1.648 -0.818,3.961 0.939,5.124 2.189,1.449 5.422,0.072 4.631,-2.667 -0.814,-2.837 -5.24,-0.748 -3.578,0.826 0.266,0.25 0.447,-1.002 1.082,-0.493 -0.227,1.899 -2.535,0.806 -1.648,-1 0.684,-1.383 3.852,-1.8 4.559,0.745 0.73,2.612 -1.988,4.642 -4.621,3.46 -2.063,-0.931 -3.305,-3.303 -1.893,-6.081 1.158,-2.282 4.498,-3.56 7.498,-1.663 3.977,2.518 7.578,12.992 -0.453,24.996 z"
   id="path21"
   inkscape:connector-curvature="0" />
	<path
   d="m 432.557,202.216 c -2.043,-9.061 0.807,-24.785 -5.781,-34.254 -4.934,-7.086 -12.418,-10.832 -19.424,-15.348 1.936,3.051 2.719,4.709 3.32,8.281 0.619,3.689 1.422,8.836 3.371,11.861 5.666,8.779 11.982,7.949 13.52,20.309 1.014,-9.559 -0.842,-18.789 -3.277,-23.908 7.585,9.043 3.964,22.203 8.271,33.059 z"
   id="path23"
   inkscape:connector-curvature="0" />
	<path
   d="m 465.92,125.116 c 9.504,-4.931 12.828,-13.428 11.617,-20.084 -1.264,-6.958 -9.313,-12.082 -12.621,-8.53 -0.83,0.894 -0.699,2.379 0.41,2.525 1.002,0.137 0.783,-1.126 0.213,-0.922 0.133,-0.402 0.885,-0.511 0.984,0.126 0.121,0.775 -0.588,1.463 -1.578,1.085 -0.814,-0.31 -1.209,-1.231 -0.947,-2.269 0.594,-2.339 5.91,-5.958 12.043,-0.373 1.941,1.77 0.865,4.494 2.459,5.653 -0.266,-3.096 2.783,-2.242 3.289,-3.305 -0.246,1.815 -1.9,2.249 -1.471,4.417 0.303,1.542 2.211,3.29 1.438,5.989 -0.799,2.793 -3.525,3.758 -4.316,5.467 2.082,-0.919 3.344,0.614 3.504,1.65 0.295,1.913 -1.803,3.874 -3.053,2.806 -0.4,-0.344 -0.139,-0.915 0.213,-0.845 0.211,0.042 0.338,0.28 0.295,0.415 -0.049,0.139 -0.135,0.07 -0.168,0.018 -0.033,-0.055 -0.037,-0.185 -0.141,-0.179 -0.102,0.011 -0.281,0.327 0.152,0.486 0.879,0.329 1.797,-1.778 0.094,-2.494 -1.26,-0.529 -2.465,1.717 -4.693,3.907 -1.817,1.783 -4.168,3.018 -7.723,4.457 z"
   id="path25"
   inkscape:connector-curvature="0" />
	<path
   d="m 474.025,118.054 c 2.41,-3.118 3.516,-7.315 2.922,-10.414 -0.451,-2.338 -1.93,-3.722 -3.348,-3.34 -0.809,0.217 -1.258,1.02 -1.051,1.716 0.205,0.678 0.879,0.983 1.4,0.828 0.668,-0.194 0.621,-0.842 0.225,-1.047 -0.348,-0.182 -0.666,0.013 -0.727,0.266 -0.023,0.113 0.053,0.234 0.184,0.256 0.104,0.017 0.182,-0.079 0.168,-0.162 -0.012,-0.078 -0.086,-0.13 -0.154,-0.149 0.346,-0.443 1.086,0.26 0.393,0.658 -0.477,0.272 -1.143,-0.067 -1.346,-0.684 -0.193,-0.589 0.18,-1.317 0.928,-1.551 1.172,-0.368 2.621,0.675 3.199,3.067 0.518,2.145 0.159,6.39 -2.793,10.556 z"
   id="path27"
   inkscape:connector-curvature="0" />
	<path
   d="m 474.586,100.152 c 1.914,2.368 2.951,4.838 2.813,8.554 0.232,-3.681 -0.873,-6.3 -2.725,-8.618 -1.932,-2.416 -4.496,-3.287 -5.193,-2.213 -0.234,0.362 0.029,0.746 0.361,0.803 0.281,0.049 0.475,-0.192 0.436,-0.352 -0.086,-0.366 -0.49,-0.188 -0.406,-0.059 0.072,0.118 0.131,-0.109 0.219,0.018 0.041,0.057 0.025,0.225 -0.195,0.238 -0.305,0.015 -0.465,-0.271 -0.33,-0.542 0.5,-0.99 3.061,-0.245 5.02,2.171 z"
   id="path29"
   inkscape:connector-curvature="0" />
	<path
   d="m 471.822,124.757 c 37.93,-26.44 41.725,-88.566 0.965,-102.732 -25.445,-8.847 -45.084,6.927 -52.348,19.508 -7.793,13.518 -5.705,23.665 -3.652,29.261 1.141,3.1 -1.693,3.805 -2.885,0.706 -2.475,-6.402 -4.34,-17.667 4.15,-31.5 8.447,-13.753 19.352,-18.882 28.096,-21.906 -6.664,1.192 -15.975,6.547 -21.154,11.711 -20.873,20.791 -15.828,43.471 -3.992,55.806 13.695,14.288 31.518,11.774 42.102,2.283 7.281,-6.526 9.467,-15.452 5.869,-23.451 -3.293,-7.326 -12.436,-3.617 -8.99,4.038 3.066,6.83 0.221,12.515 -4.268,16.329 -6.205,5.283 -21.039,8.859 -31.246,-3.162 -11.23,-13.221 -12.348,-34.425 6.699,-50.8 12.215,-10.502 28.023,-11.835 41.107,-7.35 34.623,11.858 39.188,64.81 1.906,94.469 l -2.35,6.77 -0.009,0.02 z"
   id="path31"
   inkscape:connector-curvature="0" />
	<path
   d="m 520.623,136.19 c 5.137,11.246 0.211,21.038 -2.787,23.75 -2.617,2.367 -5.584,4.219 -9.227,4.393 -4.689,0.223 -8.52,-2.574 -9.523,-6.967 -0.182,-0.791 -0.234,-1.59 -0.172,-2.373 0.107,-1.268 0.521,-2.477 1.23,-3.512 1.027,-1.496 2.582,-2.469 4.391,-2.732 1.934,-0.283 3.414,0.438 4.15,1.205 1.471,1.543 1.365,3.469 0.5,4.621 -0.607,0.805 -2.217,1.615 -3.551,0.607 -0.061,-0.039 -0.248,-0.248 -0.297,-0.32 -0.146,-0.199 -0.24,-0.453 -0.24,-0.729 -0.006,-0.699 0.566,-1.275 1.266,-1.277 0.709,-0.006 1.281,0.564 1.283,1.266 -0.002,0.48 -0.268,0.881 -0.65,1.102 0.766,-0.172 1.313,-0.719 1.533,-1.063 0.668,-1.059 0.498,-2.535 -0.396,-3.504 -1.018,-1.094 -2.809,-1.092 -4.148,-0.711 -2.75,0.77 -4.57,3.936 -3.963,7.119 0.504,2.637 3.242,6.4 8.211,6.33 3.57,-0.063 6.535,-1.914 8.797,-4.439 2.205,-2.459 3.777,-6.518 3.564,-11.285 -0.209,-4.686 -3.342,-9.205 -5.402,-8.461 -2.066,0.748 3.719,1.157 0.906,4.803 -0.1,-3.596 -9.426,-2.521 -14.359,-6.951 -4.518,-4.053 -7.875,-15.795 -15.998,-9.417 10.977,-12.271 -55.379,-10.199 -55.172,85.496 -3.583,-100.385 73.622,-112.942 90.054,-76.951 z"
   id="path33"
   inkscape:connector-curvature="0" />
	<path
   d="m 435.047,171.358 c -10.734,32.971 0.908,60.129 18.822,72.738 18.729,13.184 48.941,6.723 48.508,-8.984 -0.109,-3.961 -3.791,-7.084 -6.691,-4.902 -2.617,1.969 0.756,4.381 1.609,2.604 0.607,1.234 -0.875,3.203 -2.557,1.955 -2.041,-1.514 -1.973,-4.713 1.164,-6.088 2.59,-1.133 5.596,0.092 7.348,3.082 3.951,6.742 -0.09,27.178 -26.936,28.219 -8.502,0.33 -12.215,-8.402 -18.523,-7.459 7.648,6.541 -1.328,11.498 -0.088,15.102 -3.547,-4.742 -0.715,-9.504 -6.627,-13.533 -4.217,-2.871 -12.588,-2.568 -16.936,-10.553 -4.494,-8.258 -0.393,-16.686 -2.457,-22.428 -2.721,6.852 -9.109,6.188 -11.834,4.156 -5.027,-3.746 -4.648,-13.039 0.668,-13.412 1.707,-0.113 2.395,1.801 1.432,2.434 -0.58,0.385 -1.42,0.123 -1.627,-0.293 -0.205,-0.42 0.145,-0.461 0.35,-0.416 0.203,0.047 0.518,0.34 0.73,0.09 0.211,-0.254 -0.09,-1.387 -1.461,-0.771 -2.773,1.234 -0.104,8.191 5.449,5.967 4.115,-1.641 1.789,-9.559 1.957,-19.674 0.141,-8.244 2.762,-16.435 7.7,-27.834 z"
   id="path35"
   inkscape:connector-curvature="0" />
	<path
   d="m 436.709,208.987 c 0,0 -4.172,-2.369 -4.049,-5.877 0.021,-0.607 0.117,-1.178 0.266,-1.713 0.643,-3.885 3.859,-6.76 6.82,-8.775 -1.936,1.482 -3.832,3.465 -4.957,5.654 0.881,-0.855 1.961,-1.475 3.084,-1.824 2.664,-0.83 2.832,-3.342 2.752,-4.045 -0.127,-1.098 -6.139,-4.15 -9.072,5.559 0,0 0.225,-7.914 8.752,-9.25 8.523,-1.33 7.107,-6.977 5.852,-10.758 -1.252,-3.785 0.617,-10.615 5.08,-9.58 3.639,0.84 3.678,3.121 3.246,3.684 0,0 -1.369,-0.949 -2.229,1.186 -0.863,2.135 2.748,2.689 3.855,-1.387 1.107,-4.068 -7.379,-8.477 -13.859,-3.527 -0.889,0.678 -1.742,1.494 -2.563,2.396 l -1.807,0.979 -1.453,3.461 c -0.748,1.236 -1.445,2.537 -2.07,3.904 0.395,-0.627 0.799,-1.248 1.211,-1.859 l -1.664,3.969 -0.139,0.68 c -0.238,0.439 -0.471,0.887 -0.703,1.338 0.201,-0.307 0.408,-0.609 0.617,-0.91 l -0.693,3.393 c -0.367,0.729 -0.717,1.447 -1.027,2.127 0.275,-0.428 0.561,-0.85 0.852,-1.262 l -0.701,3.445 c -0.18,0.389 -0.359,0.775 -0.531,1.168 0.131,-0.197 0.273,-0.385 0.41,-0.576 l -0.922,4.535 c -0.221,0.777 -0.387,1.564 -0.482,2.359 0.436,9.516 3.785,22.242 3.785,22.242 0,0 -0.136,-6.05 2.339,-10.736 z"
   id="path37"
   inkscape:connector-curvature="0" />
</g>
</svg>